<?xml version="1.0" encoding="UTF-8"?><svg id="Layer_1" xmlns="http://www.w3.org/2000/svg" viewBox="0 0 24.71 31.21"><defs><style>.cls-1{fill:#ffcc0c;}.cls-2{fill:#292a2a;}</style></defs><path class="cls-2" d="M24.7,15.09c0,2.66-.02,5.31,0,7.97,.01,1.19-.4,2.03-1.54,2.51-1.06,.45-2.09,.99-3.13,1.51-.37,.19-.67,.18-1-.08-.46-.35-.94-.68-1.42-1-.4-.27-.34-.46,.06-.66,1.18-.56,2.34-1.14,3.52-1.68,.67-.31,.96-.77,.96-1.53-.02-4.37,0-8.74-.01-13.11,0-1.11-.23-1.25-1.25-.77-3.59,1.72-7.17,3.45-10.77,5.14-.58,.27-.8,.6-.8,1.26,.02,4.06,.02,8.11,.02,12.17,0,1.34-.02,2.66,.01,4,0,.14-.01,.33-.15,.38-.12,.05-.24-.04-.34-.12-.34-.27-.74-.48-1.06-.77-.28-.26-.52-.57-.69-.92-.35-.73-.4-1.58-.38-2.38,.13-4.66,.05-9.32,.03-13.97,0-.61,.17-.93,.75-1.2,4.73-2.23,9.45-4.5,14.17-6.76,1.76-.85,2.99-.07,3,1.91,0,2.7,0,5.41,0,8.11h0Z"/><path class="cls-1" d="M3.46,18.28c0-2.58,.02-5.16-.01-7.75,0-.57,.2-.86,.7-1.1,4.75-2.24,9.49-4.51,14.23-6.77,1.19-.57,2.2-.32,2.68,.64,.23,.47,.2,.79-.34,1.04-2.83,1.34-5.65,2.7-8.48,4.06-1.89,.91-3.78,1.83-5.68,2.7-.56,.26-.61,.66-.6,1.17,0,4.06,0,8.11,0,12.17,0,1.25,0,2.49,0,3.74,0,.14-.03,.31-.16,.35-.08,.02-.17-.03-.24-.08-.4-.27-.83-.51-1.18-.84-.27-.25-.49-.56-.65-.89-.33-.71-.36-1.52-.31-2.28,.14-2.04,.03-4.1,.03-6.15h0Z"/><path class="cls-2" d="M.01,15.77C.01,13.26,.02,10.75,0,8.24c0-.54,.15-.88,.68-1.13C5.48,4.84,10.27,2.55,15.06,.27c.97-.46,1.88-.33,2.44,.35,.58,.7,.49,1.08-.34,1.47C12.54,4.29,7.93,6.51,3.31,8.68c-.59,.28-.79,.62-.79,1.27,.02,4.05,.02,8.11,.01,12.16,0,1.06-.03,2.12,.02,3.17,0,.11,0,.23-.03,.34s-.15,.19-.26,.17c-.06,0-.11-.05-.15-.08-.18-.14-.36-.28-.55-.41-.87-.57-1.41-1.28-1.54-2.34-.07-.61,.14-7.19,0-7.19H.01Z"/><path class="cls-1" d="M21.23,15.85c0,1.9-.01,3.81,0,5.71,0,.64-.24,1.03-.82,1.29-1.23,.55-2.45,1.13-3.65,1.74-.5,.26-.88,.24-1.3-.12-.36-.31-.77-.58-1.17-.84-.47-.3-.34-.49,.07-.69,1.17-.56,2.33-1.17,3.52-1.69,.63-.28,.84-.68,.84-1.34-.02-2.8,.02-5.59-.02-8.39-.01-.79,.23-1.21,.96-1.54,1.6-.73,1.58-.77,1.58,.94v4.92h0Z"/><path class="cls-2" d="M10.34,20.87c1.46-.7,2.77-1.36,4.11-1.96,.64-.29,.91-.7,.9-1.4-.03-1.59,0-3.18-.02-4.77,0-.5,.15-.81,.63-.99,.49-.19,.96-.46,1.43-.69,.34-.16,.5-.05,.5,.32,0,2.68,0,5.35,0,8.03,0,.48-.28,.81-.7,1.02-1.35,.65-2.69,1.29-4.04,1.93-.22,.1-.44,.17-.68,0-.66-.48-1.33-.94-2.12-1.5h0Z"/></svg>