<?xml version="1.0" encoding="UTF-8"?><svg id="Layer_1" xmlns="http://www.w3.org/2000/svg" viewBox="0 0 377.59 273.93"><defs><style>.cls-1{fill:#ffcc07;}.cls-2{fill:#282929;}</style></defs><g><path class="cls-2" d="M260.66,90.94c0,16.01-.11,32.02,.05,48.02,.07,7.16-2.42,12.22-9.31,15.12-6.42,2.71-12.62,5.95-18.85,9.09-2.22,1.12-4.01,1.07-6.01-.47-2.76-2.13-5.65-4.09-8.55-6.04-2.39-1.61-2.04-2.8,.37-3.95,7.09-3.38,14.11-6.89,21.25-10.15,4.06-1.86,5.78-4.66,5.76-9.21-.14-26.34-.05-52.68-.08-79.02,0-6.7-1.41-7.55-7.53-4.63-21.64,10.34-43.24,20.78-64.95,30.99-3.52,1.65-4.83,3.61-4.81,7.59,.14,24.46,.13,48.92,.1,73.39,0,8.05-.14,16.06,.09,24.1,.02,.87-.08,1.96-.89,2.28-.72,.29-1.47-.24-2.07-.72-2.04-1.63-4.45-2.88-6.37-4.64-1.71-1.57-3.12-3.43-4.13-5.52-2.13-4.42-2.44-9.5-2.3-14.33,.79-28.07,.33-56.17,.19-84.25-.02-3.69,1.05-5.62,4.53-7.26,28.54-13.45,56.97-27.12,85.41-40.78,10.61-5.1,18.05-.45,18.09,11.51,.05,16.3,.01,32.6,.01,48.9Z"/><path class="cls-1" d="M132.62,110.17c0-15.57,.1-31.13-.07-46.7-.04-3.44,1.18-5.17,4.24-6.61,28.65-13.53,57.22-27.21,85.82-40.84,7.18-3.42,13.28-1.93,16.18,3.86,1.41,2.81,1.19,4.77-2.02,6.28-17.08,8.08-34.08,16.3-51.12,24.46-11.4,5.46-22.76,11.02-34.26,16.27-3.39,1.55-3.65,3.98-3.64,7.05,.04,24.46,.03,48.92,.03,73.38,0,7.51,.02,15.02-.03,22.53,0,.83-.18,1.89-.99,2.09-.51,.13-1.02-.18-1.46-.48-2.39-1.62-4.99-3.1-7.11-5.08-1.64-1.53-2.97-3.35-3.92-5.38-1.99-4.27-2.2-9.14-1.88-13.76,.87-12.3,.21-24.72,.21-37.08Z"/><path class="cls-2" d="M111.82,95.07c0-15.14,.06-30.28-.05-45.42-.02-3.28,.9-5.3,4.09-6.8,28.94-13.65,57.79-27.47,86.68-41.22,5.86-2.79,11.35-1.97,14.73,2.12,3.52,4.25,2.94,6.5-2.05,8.88-27.84,13.24-55.64,26.59-83.53,39.72-3.56,1.68-4.76,3.72-4.74,7.65,.14,24.44,.12,48.88,.09,73.31,0,6.38-.18,12.76,.12,19.14,.03,.68,.06,1.39-.2,2.02s-.92,1.15-1.59,1.03c-.35-.06-.65-.29-.93-.5-1.1-.84-2.18-1.7-3.33-2.46-5.23-3.42-8.5-7.74-9.26-14.13-.44-3.68,.82-43.34,.03-43.34-.02,0-.03,0-.05,0Z"/><path class="cls-1" d="M239.74,95.57c0,11.48-.09,22.97,.05,34.45,.05,3.86-1.44,6.2-4.95,7.79-7.41,3.34-14.78,6.79-22.01,10.51-3.01,1.55-5.31,1.44-7.85-.73-2.2-1.88-4.63-3.52-7.08-5.08-2.82-1.8-2.04-2.95,.44-4.14,7.07-3.39,14.03-7.03,21.21-10.17,3.8-1.66,5.09-4.12,5.06-8.09-.11-16.86,.15-33.72-.13-50.58-.08-4.76,1.4-7.29,5.76-9.29,9.63-4.41,9.51-4.65,9.51,5.69,0,9.88,0,19.77,0,29.65Z"/><path class="cls-2" d="M174.09,125.82c8.82-4.22,16.73-8.19,24.8-11.79,3.86-1.72,5.48-4.24,5.41-8.42-.16-9.59,.04-19.19-.11-28.78-.05-3.03,.88-4.86,3.8-5.97,2.97-1.13,5.76-2.76,8.64-4.14,2.02-.97,3-.28,3,1.94-.01,16.14,.01,32.27-.06,48.41-.01,2.88-1.67,4.89-4.22,6.12-8.11,3.9-16.24,7.8-24.37,11.66-1.33,.63-2.65,1.03-4.09,0-3.98-2.88-8.03-5.67-12.8-9.02Z"/></g><g><path class="cls-2" d="M1.64,251.7h14.88c.73,0,1.41,.48,1.57,1.19,.8,3.4,4.37,5.44,12.14,5.5,7.63,.07,11.15-2.09,11.15-4.89,0-1.94-1.08-3.96-6.98-4.82l-7.77-1.22c-11.44-1.87-25.18-3.24-25.18-18.7,0-11.94,9.71-19.28,28.92-19.28,16.76,0,28.61,4.5,29.06,20.39,.03,.93-.72,1.7-1.64,1.7h-14.86c-.72,0-1.33-.48-1.56-1.16-1.14-3.34-4.57-5.38-11.43-5.38s-9.35,2.01-9.35,4.75c0,1.73,1.08,3.81,5.68,4.53l6.4,1.08c12.01,2.02,28.49,2.37,28.49,18.92,0,13.17-10.22,19.71-30.94,19.64C10.13,273.86,.25,267.85,0,253.39c-.02-.92,.72-1.68,1.64-1.68Z"/><path class="cls-2" d="M64.98,213.12c0-.9,.73-1.64,1.64-1.64h32.68c16.47,0,26.26,7.34,26.26,23.6s-9.78,23.6-26.19,23.6h-12.82c-.9,0-1.64,.73-1.64,1.64v9.96c0,.9-.73,1.64-1.64,1.64h-16.65c-.9,0-1.64-.73-1.64-1.64v-57.16Zm32.59,29.01c4.82,0,7.91-2.37,7.91-7.05s-3.09-7.05-7.84-7.05h-11.1c-.9,0-1.64,.73-1.64,1.64v10.82c0,.9,.73,1.64,1.64,1.64h11.02Z"/><path class="cls-2" d="M168.12,263.93h-23.54c-.71,0-1.33,.45-1.55,1.12l-1.92,5.75c-.22,.67-.85,1.12-1.55,1.12h-17.05c-1.14,0-1.93-1.13-1.54-2.2l21.03-57.16c.24-.64,.85-1.07,1.54-1.07h25.63c.69,0,1.3,.43,1.54,1.07l21.03,57.16c.39,1.07-.4,2.2-1.54,2.2h-17.05c-.71,0-1.33-.45-1.55-1.12l-1.92-5.75c-.22-.67-.85-1.12-1.55-1.12Zm-4.43-16.91l-5.24-15.72c-.22-.67-.85-1.12-1.55-1.12h-1.09c-.71,0-1.33,.45-1.55,1.12l-5.24,15.72c-.35,1.06,.44,2.16,1.55,2.16h11.57c1.12,0,1.91-1.1,1.55-2.16Z"/><path class="cls-2" d="M188.59,241.7c0-19.35,13.6-32.23,33.96-32.23,14.29,0,28.91,6.08,31.64,25.03,.14,.99-.63,1.88-1.63,1.88h-15.91c-.7,0-1.33-.44-1.55-1.11-1.88-5.86-6.39-8.6-12.56-8.6-7.91,0-14.17,5.9-14.17,15.04s6.26,15.04,14.17,15.04c6.18,0,10.7-2.76,12.57-8.76,.2-.65,.81-1.09,1.49-1.09h15.96c1,0,1.77,.89,1.63,1.87-2.72,19.1-17.22,25.18-31.65,25.18-20.36,0-33.96-12.88-33.96-32.23Z"/><path class="cls-2" d="M260.01,211.49h51.19c.9,0,1.64,.73,1.64,1.64v12.7c0,.9-.73,1.64-1.64,1.64h-31.26c-.9,0-1.64,.73-1.64,1.64v4.42c0,.9,.73,1.64,1.64,1.64h29.96c.9,0,1.64,.73,1.64,1.64v9.82c0,.9-.73,1.64-1.64,1.64h-29.96c-.9,0-1.64,.73-1.64,1.64v4.42c0,.9,.73,1.64,1.64,1.64h31.26c.9,0,1.64,.73,1.64,1.64v12.7c0,.9-.73,1.64-1.64,1.64h-51.19c-.9,0-1.64-.73-1.64-1.64v-57.16c0-.9,.73-1.64,1.64-1.64Z"/><path class="cls-2" d="M318.07,251.7h14.88c.73,0,1.41,.48,1.57,1.19,.8,3.4,4.37,5.44,12.14,5.5,7.63,.07,11.15-2.09,11.15-4.89,0-1.94-1.08-3.96-6.98-4.82l-7.77-1.22c-11.44-1.87-25.18-3.24-25.18-18.7,0-11.94,9.71-19.28,28.92-19.28,16.76,0,28.61,4.5,29.06,20.39,.03,.93-.72,1.7-1.64,1.7h-14.86c-.72,0-1.33-.48-1.56-1.16-1.14-3.34-4.57-5.38-11.43-5.38s-9.35,2.01-9.35,4.75c0,1.73,1.08,3.81,5.68,4.53l6.4,1.08c12.01,2.02,28.49,2.37,28.49,18.92,0,13.17-10.22,19.71-30.94,19.64-20.1-.07-29.98-6.08-30.23-20.55-.02-.92,.72-1.68,1.64-1.68Z"/></g></svg>